<svg xmlns="http://www.w3.org/2000/svg" xmlns:xlink="http://www.w3.org/1999/xlink" width="218" height="218" viewBox="0 0 218 218"><defs><path id="a" d="M0 0h210v210H0z"/><rect id="c" width="180" height="210" x="15" rx="4"/></defs><g fill="none" fill-rule="evenodd" transform="translate(4 4)"><mask id="b" fill="#fff"><use xlink:href="#a"/></mask><g mask="url(#b)"><use fill="#FAFAFA" xlink:href="#c"/><rect width="179" height="209" x="15.5" y=".5" stroke="#DCDCDC" rx="4"/></g><path fill="#F55" fill-rule="nonzero" d="M94.4 128.264c-2.237 4.218-4.938 8.622-6.82 10.967-6.201 8.706-16.52 12.411-20.48 4.738-3.044-5.9.513-11.976 7.162-16.008 1.345-.844 8.199-3.517 14.307-5.827.998-2.003 1.736-3.707 1.946-4.628l.059-.258.092-.248c3.05-8.206 7.18-20.852 7.824-24.231.066-.347.27-1.168.525-2.15-3.829-8.524-6.862-16.66-6.862-19.99 0-11.883 14.081-12.96 17.55-2.158 1.061 3.3.914 7.427-.063 12.578-.358 1.886-.816 3.844-1.4 6.069.004-.01-.35 1.28-.755 2.774 3.974 8.473 8.543 17.092 10.905 20.162.552.542 1.102 1.073 1.649 1.591 8.164-2.24 13.755-3.16 16.367-2.418 10.733 3.046 8.872 19.978-2.126 19.978-3.885 0-8.153-2.209-13.089-6.003a74.326 74.326 0 0 1-3.19-2.597c-7.454 2.208-16.225 5.07-23.6 7.66zm9.916-26.594c-1.56 5.065-3.724 11.48-5.631 16.705a524.382 524.382 0 0 1 12.806-4.205c-1.896-2.681-4.496-7.26-7.175-12.5zm-2.23-30.753c-.828-2.582-1.932-2.497-1.932-.287 0 1.189.755 3.677 1.971 6.863.419-2.928.409-5.185-.038-6.576zM78.79 134.541l-.182.141-.198.12c-3.23 1.96-4.58 3.977-4.309 5.196.226-.02.55-.091.949-.236 1.903-.69 4.173-2.56 6.07-5.251l.167-.22c.335-.413.717-.931 1.128-1.53-1.849.776-3.126 1.392-3.625 1.78zm55.49-13.336c1.515 0 1.924-3.719-.059-4.282-.782-.222-3.232.204-6.695 1.056 2.79 2.012 5.166 3.226 6.754 3.226z"/></g></svg>