<svg xmlns="http://www.w3.org/2000/svg" xmlns:xlink="http://www.w3.org/1999/xlink" width="218" height="218" viewBox="0 0 218 218"><defs><path id="a" d="M0 0h210v210H0z"/><rect id="c" width="180" height="210" x="15" rx="4"/></defs><g fill="none" fill-rule="evenodd" transform="translate(4 4)"><mask id="b" fill="#fff"><use xlink:href="#a"/></mask><g mask="url(#b)"><use fill="#FAFAFA" xlink:href="#c"/><rect width="179" height="209" x="15.5" y=".5" stroke="#DCDCDC" rx="4"/></g><path fill="#7C878E" d="M109.333 67.542C114.9 60.038 122.663 60 122.663 60s1.145 7.06-4.385 13.86c-5.891 7.26-12.625 6.067-12.625 6.067s-1.273-5.71 3.712-12.385h-.032zM120.3 80c11.729 0 17 8.108 17 8.108s-10.193 4.143-10.193 14.595c0 11.781 11.893 16.216 11.893 16.216s-8.097 20.984-18.7 20.984c-4.88 0-11.285-3.146-15.3-3.146-4.015 0-8.522 3.243-11.9 3.243-9.696 0-22.1-19.951-22.1-35.676C71 88.794 79.983 80 89.7 80c6.307 0 12.016 4.463 15.3 4.463 3.284 0 8.492-4.463 15.3-4.463z" mask="url(#b)"/></g></svg>