<svg xmlns="http://www.w3.org/2000/svg" xmlns:xlink="http://www.w3.org/1999/xlink" width="218" height="218" viewBox="0 0 218 218"><defs><path id="a" d="M20 0h172a4 4 0 0 1 4 4v202a4 4 0 0 1-4 4H20a4 4 0 0 1-4-4V4a4 4 0 0 1 4-4z"/></defs><g fill="none" fill-rule="evenodd" transform="translate(3 4)"><path d="M.5.5h210v210H.5z"/><use fill="#FAFAFA" xlink:href="#a"/><path stroke="#DCDCDC" d="M20 .5A3.5 3.5 0 0 0 16.5 4v202a3.5 3.5 0 0 0 3.5 3.5h172a3.5 3.5 0 0 0 3.5-3.5V4A3.5 3.5 0 0 0 192 .5H20z"/><path fill="#4C94F0" d="M110 105v28h16v8H86v-8h16v-28H70l6-36h60l6 36h-32z"/></g></svg>