<svg xmlns="http://www.w3.org/2000/svg" xmlns:xlink="http://www.w3.org/1999/xlink" width="100" height="100" viewBox="0 0 100 100"><defs><path id="a" d="M26 14h54a2 2 0 0 1 2 2v68a2 2 0 0 1-2 2H26a2 2 0 0 1-2-2V16a2 2 0 0 1 2-2z"/></defs><g fill="none" fill-rule="evenodd"><use fill="#FAFAFA" xlink:href="#a"/><path stroke="#DCDCDC" d="M26 14.5a1.5 1.5 0 0 0-1.5 1.5v68a1.5 1.5 0 0 0 1.5 1.5h54a1.5 1.5 0 0 0 1.5-1.5V16a1.5 1.5 0 0 0-1.5-1.5H26z"/><path fill="#E5E5E5" d="M33 38h40v3H33v-3zm0 7h40v3H33v-3zm0 7h40v3H33v-3zm0 7h40v3H33v-3zm0 7h40v3H33v-3z"/><path fill="#3A74D1" d="M17.896 33.445l32-3.33a1 1 0 0 1 1.104.994v43.782a1 1 0 0 1-1.104.994l-32-3.33A1 1 0 0 1 17 71.56V34.44a1 1 0 0 1 .896-.995z"/><path fill="#FFF" d="M37.495 55.519l2.838-11.188L44 44l-4.889 19.56-3.361-.296L33 52.238l-2.75 10.551-3.361-.284L23 45.9l3.667-.303 1.838 9.797 2.662-10.261 3.666-.317z"/></g></svg>