<svg xmlns="http://www.w3.org/2000/svg" xmlns:xlink="http://www.w3.org/1999/xlink" width="100" height="100" viewBox="0 0 100 100"><defs><rect id="a" width="64" height="72" x="18" y="14" rx="2"/></defs><g fill="none" fill-rule="evenodd"><path d="M0 0h100v100H0z"/><use fill="#FAFAFA" xlink:href="#a"/><rect width="63" height="71" x="18.5" y="14.5" stroke="#DCDCDC" rx="2"/><path fill="#7C878E" d="M70 54v.014L56 63v-8.014L63.768 50 56 45.014V37l14 8.986V46s2 1.258 2 4-2 4-2 4zm-40-8v-.014L44 37v8.014L36.232 50 44 54.986V63l-14-8.986V54s-2-1.258-2-4 2-4 2-4z"/></g></svg>