<svg xmlns="http://www.w3.org/2000/svg" xmlns:xlink="http://www.w3.org/1999/xlink" width="218" height="218" viewBox="0 0 218 218"><defs><path id="a" d="M19 0h172a4 4 0 0 1 4 4v202a4 4 0 0 1-4 4H19a4 4 0 0 1-4-4V4a4 4 0 0 1 4-4z"/></defs><g fill="none" fill-rule="evenodd" transform="translate(4 4)"><path d="M0 0h210v210H0z"/><use fill="#FAFAFA" xlink:href="#a"/><path stroke="#DCDCDC" d="M19 .5A3.5 3.5 0 0 0 15.5 4v202a3.5 3.5 0 0 0 3.5 3.5h172a3.5 3.5 0 0 0 3.5-3.5V4A3.5 3.5 0 0 0 191 .5H19z"/><path fill="#FFA72B" d="M133 135.87c-.483.086-.976.13-1.474.13-6.049 0-10.526-4.477-10.526-9.474 0-.176.004-.352.011-.526H121v-19h-8V95h8v-7h12v7h8v12h-8v17h8v12h-8v-.13zM69 125V72h18c9.941 0 18 8.059 18 18 0 3.914-1.25 7.537-3.371 10.49 4.498 3.668 7.371 9.253 7.371 15.51 0 11.046-8.954 20-20 20H69v-11zm12-41v12h6.006A5.997 5.997 0 0 0 93 90c0-3.307-2.684-6-5.994-6H81zm0 24v17h7.504c4.69 0 8.496-3.806 8.496-8.5 0-4.685-3.804-8.5-8.496-8.5H81z"/></g></svg>