<svg xmlns="http://www.w3.org/2000/svg" xmlns:xlink="http://www.w3.org/1999/xlink" width="218" height="218" viewBox="0 0 218 218"><defs><path id="a" d="M19 0h172a4 4 0 0 1 4 4v202a4 4 0 0 1-4 4H19a4 4 0 0 1-4-4V4a4 4 0 0 1 4-4z"/></defs><g fill="none" fill-rule="evenodd" transform="translate(4 4)"><path d="M0 0h210v210H0z"/><use fill="#FAFAFA" xlink:href="#a"/><path stroke="#DCDCDC" d="M19 .5A3.5 3.5 0 0 0 15.5 4v202a3.5 3.5 0 0 0 3.5 3.5h172a3.5 3.5 0 0 0 3.5-3.5V4A3.5 3.5 0 0 0 191 .5H19z"/><path fill="#7C878E" d="M125 84h-14v44h10v12H89v-12h10V84H85v8H73V72h64v20h-12v-8z"/></g></svg>