<svg xmlns="http://www.w3.org/2000/svg" xmlns:xlink="http://www.w3.org/1999/xlink" width="100" height="100" viewBox="0 0 100 100"><defs><path id="a" d="M26 14h54a2 2 0 0 1 2 2v68a2 2 0 0 1-2 2H26a2 2 0 0 1-2-2V16a2 2 0 0 1 2-2z"/></defs><g fill="none" fill-rule="evenodd"><use fill="#FAFAFA" xlink:href="#a"/><path stroke="#DCDCDC" d="M26 14.5a1.5 1.5 0 0 0-1.5 1.5v68a1.5 1.5 0 0 0 1.5 1.5h54a1.5 1.5 0 0 0 1.5-1.5V16a1.5 1.5 0 0 0-1.5-1.5H26z"/><path fill="#E5E5E5" d="M57 34v11h11c0 6.075-4.925 11-11 11s-11-4.925-11-11 4.925-11 11-11zm2-2c6.075 0 11 4.925 11 11H59V32zM33 62h40v3H33v-3zm0 7h40v3H33v-3z"/><path fill="#E8673A" d="M17.896 33.445l32-3.33a1 1 0 0 1 1.104.994v43.782a1 1 0 0 1-1.104.994l-32-3.33A1 1 0 0 1 17 71.56V34.44a1 1 0 0 1 .896-.995z"/><path fill="#FFF" d="M27 43.019l7.292-.487c3.705-.247 6.708 2.945 6.708 7.13 0 4.184-3.003 7.505-6.708 7.418l-3.792-.089v6.794l-3.5-.233V43.019zm3.294 3.275v6.991h4.015c1.876 0 3.397-1.638 3.397-3.66 0-2.021-1.521-3.592-3.397-3.51l-4.015.18z"/></g></svg>