<svg xmlns="http://www.w3.org/2000/svg" xmlns:xlink="http://www.w3.org/1999/xlink" width="100" height="100" viewBox="0 0 100 100"><defs><rect id="a" width="64" height="72" x="18" y="14" rx="2"/></defs><g fill="none" fill-rule="evenodd"><path d="M0 0h100v100H0z"/><use fill="#FAFAFA" xlink:href="#a"/><rect width="63" height="71" x="18.5" y="14.5" stroke="#DCDCDC" rx="2"/><path fill="#FF8127" d="M55.778 36.565l-8.485 8.485-1.414-1.414 12.728-12.728 1.414 1.414 1.414 1.415 2.121-2.122c.92-.023 2.098.684 3.536 2.122 1.437 1.437 2.144 2.616 2.121 3.535l-14.849 14.85-5.657-5.658 8.485-8.485-1.414-1.414zm-8.485 11.314l5.657 5.657-10.607 10.606c-2.603 2.603-6.138 4.253-10.606 4.95.858-4.63 2.508-8.165 4.95-10.607L47.292 47.88z"/></g></svg>