<svg xmlns="http://www.w3.org/2000/svg" xmlns:xlink="http://www.w3.org/1999/xlink" width="218" height="218" viewBox="0 0 218 218"><defs><path id="a" d="M24 0h162a4 4 0 0 1 4 4v202a4 4 0 0 1-4 4H24a4 4 0 0 1-4-4V4a4 4 0 0 1 4-4z"/></defs><g fill="none" fill-rule="evenodd" transform="translate(9 4)"><use fill="#FAFAFA" xlink:href="#a"/><path stroke="#DCDCDC" d="M24 .5A3.5 3.5 0 0 0 20.5 4v202a3.5 3.5 0 0 0 3.5 3.5h162a3.5 3.5 0 0 0 3.5-3.5V4A3.5 3.5 0 0 0 186 .5H24z"/><path fill="#E5E5E5" d="M47 141h118v8H47v-8zm0 20h118v8H47v-8zm70-102v32h32c0 17.673-14.327 32-32 32-17.673 0-32-14.327-32-32 0-17.673 14.327-32 32-32z"/><path fill="#E5E5E5" d="M124 52c17.673 0 32 14.327 32 32h-32V52z"/><path fill="#E8673A" d="M.9 56.91l98-9.8a1 1 0 0 1 1.1.995v131.79a1 1 0 0 1-1.1.995l-98-9.8a1 1 0 0 1-.9-.995V57.905a1 1 0 0 1 .9-.995z"/><path fill="#FFF" d="M29.118 84.924l21.231-1.416c10.788-.72 19.533 8.578 19.533 20.767 0 12.19-8.745 21.865-19.533 21.611l-11.04-.26v19.792l-10.191-.68V84.924zm9.591 9.542v20.365H50.4c5.463 0 9.892-4.774 9.892-10.662 0-5.889-4.429-10.465-9.892-10.223l-11.69.52z"/></g></svg>