<svg xmlns="http://www.w3.org/2000/svg" xmlns:xlink="http://www.w3.org/1999/xlink" width="100" height="100" viewBox="0 0 100 100"><defs><path id="a" d="M26 14h54a2 2 0 0 1 2 2v68a2 2 0 0 1-2 2H26a2 2 0 0 1-2-2V16a2 2 0 0 1 2-2z"/></defs><g fill="none" fill-rule="evenodd"><use fill="#FAFAFA" xlink:href="#a"/><path stroke="#DCDCDC" d="M26 14.5a1.5 1.5 0 0 0-1.5 1.5v68a1.5 1.5 0 0 0 1.5 1.5h54a1.5 1.5 0 0 0 1.5-1.5V16a1.5 1.5 0 0 0-1.5-1.5H26z"/><path fill="#E5E5E5" d="M61 34h12v6H61v-6zm-14 0h12v6H47v-6zm14 8h12v6H61v-6zm-14 0h12v6H47v-6zm14 8h12v6H61v-6zm-14 0h12v6H47v-6zm14 8h12v6H61v-6zm-14 0h12v6H47v-6zm14 8h12v6H61v-6zm-14 0h12v6H47v-6z"/><path fill="#269758" d="M17.896 33.445l32-3.33a1 1 0 0 1 1.104.994v43.782a1 1 0 0 1-1.104.994l-32-3.33A1 1 0 0 1 17 71.56V34.44a1 1 0 0 1 .896-.995z"/><path fill="#FFF" d="M33 49.364l4.2-6.831L42 42l-6.6 11L42 64l-4.8-.533-4.2-6.831-3.2 5.897L25 62l5.6-9-5.6-9 4.8-.533z"/></g></svg>