<svg xmlns="http://www.w3.org/2000/svg" xmlns:xlink="http://www.w3.org/1999/xlink" width="100" height="100" viewBox="0 0 100 100"><defs><rect id="a" width="64" height="72" x="18" y="14" rx="2"/></defs><g fill="none" fill-rule="evenodd"><path d="M0 0h100v100H0z"/><use fill="#FAFAFA" xlink:href="#a"/><rect width="63" height="71" x="18.5" y="14.5" stroke="#DCDCDC" rx="2"/><path fill="#DCDCDC" d="M57 35l-1.75 3H31v-3h26zm-4.084 7l-1.75 3H31v-3h21.916zm-4.084 7l-1.75 3H31v-3h17.832zm-4.084 7l-1.75 3H31v-3h13.748zm-2.973 7l-.187 3H31v-3h10.775z"/><path fill="#30B383" d="M58.578 39.974l6.834 3.946-12.17 21.135-5.713 3.781a.984.984 0 0 1-1.527-.884l.41-6.85 12.166-21.128zm1.48-2.57L63.17 32 70 35.953l-3.108 5.397-6.834-3.945z"/></g></svg>