<svg xmlns="http://www.w3.org/2000/svg" xmlns:xlink="http://www.w3.org/1999/xlink" width="100" height="100" viewBox="0 0 100 100"><defs><rect id="a" width="64" height="72" x="18" y="14" rx="2"/></defs><g fill="none" fill-rule="evenodd"><path d="M0 0h100v100H0z"/><use fill="#FAFAFA" xlink:href="#a"/><rect width="63" height="71" x="18.5" y="14.5" stroke="#DCDCDC" rx="2"/><path d="M57.071 61.314l-4.95 4.95c-5.076 5.076-13.308 5.076-18.384 0-5.077-5.077-5.077-13.309 0-18.385l4.95-4.95.706-.707a1 1 0 0 1 1.415 0l2.828 2.828a1 1 0 0 1 0 1.414l-.707.708-4.95 4.95a7 7 0 0 0 9.9 9.899l4.95-4.95.707-.707a1 1 0 0 1 1.414 0l2.828 2.828a1 1 0 0 1 0 1.415l-.707.707zm5.657-5.657l-.707.707a1 1 0 0 1-1.414 0l-2.829-2.828a1 1 0 0 1 0-1.415l.707-.707 3.536-3.535a7 7 0 0 0-9.9-9.9l-3.535 3.536-.707.707a1 1 0 0 1-1.415 0l-2.828-2.829a1 1 0 0 1 0-1.414l.707-.707 3.536-3.535c5.076-5.077 13.308-5.077 18.384 0 5.077 5.076 5.077 13.308 0 18.384l-3.535 3.536zm-7.071-14.142l2.828 2.828a1 1 0 0 1 0 1.414L45.757 58.485a1 1 0 0 1-1.414 0l-2.828-2.828a1 1 0 0 1 0-1.414l12.728-12.728a1 1 0 0 1 1.414 0z" fill="#01BD88"/></g></svg>