<svg xmlns="http://www.w3.org/2000/svg" xmlns:xlink="http://www.w3.org/1999/xlink" width="218" height="218" viewBox="0 0 218 218"><defs><path id="a" d="M19 0h172a4 4 0 0 1 4 4v202a4 4 0 0 1-4 4H19a4 4 0 0 1-4-4V4a4 4 0 0 1 4-4z"/></defs><g fill="none" fill-rule="evenodd" transform="translate(4 4)"><path d="M0 0h210v210H0z"/><use fill="#FAFAFA" xlink:href="#a"/><path stroke="#DCDCDC" d="M19 .5A3.5 3.5 0 0 0 15.5 4v202a3.5 3.5 0 0 0 3.5 3.5h172a3.5 3.5 0 0 0 3.5-3.5V4A3.5 3.5 0 0 0 191 .5H19z"/><path d="M119.142 127.627l-9.9 9.9c-10.153 10.154-26.615 10.154-36.769 0s-10.154-26.616 0-36.77l9.9-9.9 2.12-2.12a1 1 0 0 1 1.415 0l7.071 7.07a1 1 0 0 1 0 1.415l-2.121 2.121L80.25 109.95c-5.077 5.077-5.077 13.308 0 18.385l1.414 1.414c5.077 5.077 13.308 5.077 18.385 0l10.607-10.607 2.121-2.121a1 1 0 0 1 1.414 0l7.071 7.07a1 1 0 0 1 0 1.415l-2.12 2.121zm11.314-11.313l-2.121 2.121a1 1 0 0 1-1.415 0l-7.07-7.071a1 1 0 0 1 0-1.414l2.12-2.122 7.779-7.778c5.077-5.077 5.077-13.308 0-18.385l-1.414-1.414c-5.077-5.077-13.308-5.077-18.385 0l-7.778 7.778-2.122 2.122a1 1 0 0 1-1.414 0l-7.071-7.071a1 1 0 0 1 0-1.415l2.121-2.12 7.071-7.072c10.154-10.154 26.616-10.154 36.77 0 10.154 10.154 10.154 26.616 0 36.77l-7.071 7.07zm-14.85-28.992l7.072 7.071a1 1 0 0 1 0 1.415l-26.87 26.87a1 1 0 0 1-1.415 0l-7.07-7.071a1 1 0 0 1 0-1.415l26.87-26.87a1 1 0 0 1 1.414 0z" fill="#01BD88"/></g></svg>