<svg xmlns="http://www.w3.org/2000/svg" xmlns:xlink="http://www.w3.org/1999/xlink" width="100" height="100" viewBox="0 0 100 100"><defs><rect id="a" width="64" height="72" x="18" y="14" rx="2"/></defs><g fill="none" fill-rule="evenodd"><path d="M0 0h100v100H0z"/><use fill="#FAFAFA" xlink:href="#a"/><rect width="63" height="71" x="18.5" y="14.5" stroke="#DCDCDC" rx="2"/><path fill="#7C878E" d="M52.166 31.77C54.95 28.02 58.831 28 58.831 28s.573 3.53-2.192 6.93c-2.946 3.63-6.313 3.034-6.313 3.034s-.636-2.856 1.856-6.193h-.016zM57.65 38c5.864 0 8.5 4.054 8.5 4.054s-5.097 2.072-5.097 7.298c0 5.89 5.947 8.107 5.947 8.107s-4.049 10.492-9.35 10.492c-2.44 0-5.642-1.573-7.65-1.573S45.739 68 44.05 68C39.202 68 33 58.024 33 50.162 33 42.397 37.492 38 42.35 38c3.154 0 6.008 2.232 7.65 2.232 1.642 0 4.246-2.232 7.65-2.232z"/></g></svg>