<svg xmlns="http://www.w3.org/2000/svg" xmlns:xlink="http://www.w3.org/1999/xlink" width="218" height="218" viewBox="0 0 218 218"><defs><path id="a" d="M0 0h210v210H0z"/><rect id="c" width="180" height="210" x="15" rx="4"/></defs><g fill="none" fill-rule="evenodd" transform="translate(4 4)"><mask id="b" fill="#fff"><use xlink:href="#a"/></mask><g mask="url(#b)"><use fill="#FAFAFA" xlink:href="#c"/><rect width="179" height="209" x="15.5" y=".5" stroke="#DCDCDC" rx="4"/></g><g mask="url(#b)"><path fill="#65A8FF" d="M125.402 132.59c0 .95.962 2.543 2.886 4.778.685.796.717 2.127.071 2.972-.322.421-.771.66-1.24.66h-10.237c-.942 0-1.706-.941-1.706-2.102 0-.577.193-1.129.533-1.526 1.914-2.237 2.871-3.831 2.871-4.781h.008c.065-2.518-3.697-4.858-7.81-7.42C100.677 119.782 93 107.817 93 95.958 93 79.964 105.984 67 122 67s29 12.964 29 28.957c0 11.86-7.676 23.823-17.779 29.215-4.112 2.56-7.874 4.901-7.81 7.419h-.009z"/><path fill="#4C94F0" d="M99.678 127.473c-2.708 2.439-4.858 4.675-4.452 6.6l-.009.001c.158.857 1.305 2.146 3.439 3.867.76.613 1.01 1.81.56 2.672-.225.43-.597.715-1.027.788l-9.378 1.58c-.863.146-1.719-.586-1.912-1.634-.096-.52-.012-1.049.233-1.46 1.382-2.315 1.994-3.902 1.836-4.76h.007c-.36-2.283-4.196-3.815-8.389-5.492-10.152-3.307-19.175-12.923-21.148-23.63-2.66-14.437 7.077-28.146 21.75-30.62a27.42 27.42 0 0 1 10.017.16A37.064 37.064 0 0 0 85 96.136c0 11.714 5.799 23.526 14.678 31.336z"/></g></g></svg>