<svg xmlns="http://www.w3.org/2000/svg" xmlns:xlink="http://www.w3.org/1999/xlink" width="100" height="100" viewBox="0 0 100 100"><defs><rect id="a" width="64" height="72" x="18" y="14" rx="2"/></defs><g fill="none" fill-rule="evenodd"><path d="M0 0h100v100H0z"/><use fill="#FAFAFA" xlink:href="#a"/><rect width="63" height="71" x="18.5" y="14.5" stroke="#DCDCDC" rx="2"/><path fill="#F55" d="M54.82 46.5H63v6H52.385c-1.397 3.393-2.082 4.657-3.751 7.262C44.622 66.02 39.828 68 34 68v-6c3.969 0 6.83-1.181 9.582-5.476 1.91-2.978 2.321-3.906 4.826-10.223 1.066-2.69 1.862-4.38 2.97-6.08C54.839 34.902 59.925 32 66 32v6c-3.995 0-7.214 1.837-9.594 5.494-.566.87-1.047 1.782-1.586 3.006z"/></g></svg>