<svg xmlns="http://www.w3.org/2000/svg" xmlns:xlink="http://www.w3.org/1999/xlink" width="100" height="100" viewBox="0 0 100 100"><defs><rect id="a" width="64" height="72" x="18" y="14" rx="2"/></defs><g fill="none" fill-rule="evenodd"><path d="M0 0h100v100H0z"/><use fill="#FAFAFA" xlink:href="#a"/><rect width="63" height="71" x="18.5" y="14.5" stroke="#DCDCDC" rx="2"/><path fill="#FFA72B" d="M64 65.935a4.257 4.257 0 0 1-.737.065C60.24 66 58 63.761 58 61.263c0-.088.002-.176.006-.263H58v-9.5h-4v-6h4V42h6v3.5h4v6h-4V60h4v6h-4v-.065zM32 60.5V34h9a9 9 0 0 1 7.314 14.245A9.98 9.98 0 0 1 52 56c0 5.523-4.477 10-10 10H32v-5.5zM38 40v6h3.003a3 3 0 0 0 0-6H38zm0 12v8.5h3.743A4.252 4.252 0 0 0 46 56.25 4.257 4.257 0 0 0 41.743 52H38z"/></g></svg>