<svg xmlns="http://www.w3.org/2000/svg" xmlns:xlink="http://www.w3.org/1999/xlink" width="218" height="218" viewBox="0 0 218 218"><defs><path id="a" d="M0 0h210v210H0z"/><rect id="c" width="180" height="210" x="15" rx="4"/></defs><g fill="none" fill-rule="evenodd" transform="translate(4 4)"><mask id="b" fill="#fff"><use xlink:href="#a"/></mask><g mask="url(#b)"><use fill="#FAFAFA" xlink:href="#c"/><rect width="179" height="209" x="15.5" y=".5" stroke="#DCDCDC" rx="4"/></g><g mask="url(#b)"><path fill="#DCDCDC" d="M118 74l-3.5 6H66v-6h52zm-8.168 14l-3.5 6H66v-6h43.832zm-8.168 14l-3.5 6H66v-6h35.664zm-8.168 14l-3.5 6H66v-6h27.496zm-5.946 14l-.373 6H66v-6h21.55z"/><path fill="#30B383" d="M121.157 83.948l13.668 7.892-24.342 42.27-11.425 7.563c-.356.236-.779.35-1.204.323a1.975 1.975 0 0 1-1.85-2.091l.82-13.702 24.333-42.255zm2.959-5.139L130.34 68 144 75.907 137.784 86.7l-13.668-7.892z"/></g></g></svg>