<svg xmlns="http://www.w3.org/2000/svg" xmlns:xlink="http://www.w3.org/1999/xlink" width="100" height="100" viewBox="0 0 100 100"><defs><rect id="a" width="64" height="72" x="18" y="14" rx="2"/></defs><g fill="none" fill-rule="evenodd"><path d="M0 0h100v100H0z"/><use fill="#FAFAFA" xlink:href="#a"/><rect width="63" height="71" x="18.5" y="14.5" stroke="#DCDCDC" rx="2"/><path fill="#FF8127" d="M40.84 59l-2.04 7.5H33l8.7-32h6.6l8.7 32h-5.8L49.16 59h-8.32zm1.63-6h5.06L45 43.695 42.47 53zM61 44h6v22.5h-6V44zm3-2a4 4 0 1 1 0-8 4 4 0 0 1 0 8z"/></g></svg>