<svg xmlns="http://www.w3.org/2000/svg" xmlns:xlink="http://www.w3.org/1999/xlink" width="218" height="218" viewBox="0 0 218 218"><defs><path id="a" d="M24 0h162a4 4 0 0 1 4 4v202a4 4 0 0 1-4 4H24a4 4 0 0 1-4-4V4a4 4 0 0 1 4-4z"/></defs><g fill="none" fill-rule="evenodd" transform="translate(9 4)"><use fill="#FAFAFA" xlink:href="#a"/><path stroke="#DCDCDC" d="M24 .5A3.5 3.5 0 0 0 20.5 4v202a3.5 3.5 0 0 0 3.5 3.5h162a3.5 3.5 0 0 0 3.5-3.5V4A3.5 3.5 0 0 0 186 .5H24z"/><path fill="#E5E5E5" d="M129 62h36v16h-36V62zm-42 0h36v16H87V62zm42 22h36v16h-36V84zm-42 0h36v16H87V84zm42 22h36v16h-36v-16zm-42 0h36v16H87v-16zm42 22h36v16h-36v-16zm-42 0h36v16H87v-16zm42 22h36v16h-36v-16zm-42 0h36v16H87v-16z"/><path fill="#269758" d="M.9 56.91l98-9.8a1 1 0 0 1 1.1.995v131.79a1 1 0 0 1-1.1.995l-98-9.8a1 1 0 0 1-.9-.995V57.905a1 1 0 0 1 .9-.995z"/><path fill="#FFF" d="M46.588 103.407l12.23-19.897 13.976-1.553L53.576 114l19.218 32.043-13.976-1.553-12.23-19.897-9.317 17.178-13.977-1.554L39.6 114 23.294 87.783l13.977-1.554z"/></g></svg>