<svg xmlns="http://www.w3.org/2000/svg" xmlns:xlink="http://www.w3.org/1999/xlink" width="218" height="218" viewBox="0 0 218 218"><defs><path id="a" d="M24 0h162a4 4 0 0 1 4 4v202a4 4 0 0 1-4 4H24a4 4 0 0 1-4-4V4a4 4 0 0 1 4-4z"/></defs><g fill="none" fill-rule="evenodd" transform="translate(9 4)"><use fill="#FAFAFA" xlink:href="#a"/><path stroke="#DCDCDC" d="M24 .5A3.5 3.5 0 0 0 20.5 4v202a3.5 3.5 0 0 0 3.5 3.5h162a3.5 3.5 0 0 0 3.5-3.5V4A3.5 3.5 0 0 0 186 .5H24z"/><path fill="#E5E5E5" d="M58.7 73l-2.809 3.375 55.459 46.272L164 78.718V155H47V73h11.7zm6.853 0h91.594l-45.797 38.21L65.553 73z"/><path fill="#0083EA" d="M.9 56.91l98-9.8a1 1 0 0 1 1.1.995v131.79a1 1 0 0 1-1.1.995l-98-9.8a1 1 0 0 1-.9-.995V57.905a1 1 0 0 1 .9-.995z"/><path fill="#FFF" fill-rule="nonzero" d="M46.588 133.464c9.056.32 15.724-6.563 15.724-19.464 0-12.865-6.717-19.783-15.724-19.464-8.985.317-15.14 7.345-15.14 19.464 0 12.153 6.107 19.145 15.14 19.464zm0 11.123c-13.164-.732-24.75-11.178-24.75-30.587 0-19.41 11.672-29.86 24.75-30.587 13.079-.727 26.206 9.182 26.206 30.587s-13.041 31.319-26.206 30.587z"/></g></svg>