<svg xmlns="http://www.w3.org/2000/svg" xmlns:xlink="http://www.w3.org/1999/xlink" width="218" height="218" viewBox="0 0 218 218"><defs><path id="a" d="M0 0h210v210H0z"/><rect id="c" width="180" height="210" x="15" rx="4"/></defs><g fill="none" fill-rule="evenodd" transform="translate(4 4)"><mask id="b" fill="#fff"><use xlink:href="#a"/></mask><g mask="url(#b)"><use fill="#FAFAFA" xlink:href="#c"/><rect width="179" height="209" x="15.5" y=".5" stroke="#DCDCDC" rx="4"/></g><path fill="#F55" d="M114.64 97H131v12h-21.23c-2.793 6.787-4.163 9.315-7.503 14.524C94.243 136.04 84.657 140 73 140v-12c7.938 0 13.659-2.363 19.165-10.952 3.818-5.956 4.642-7.811 9.65-20.446 2.133-5.38 3.726-8.758 5.94-12.16C114.678 73.804 124.85 68 137 68v12c-7.99 0-14.428 3.674-19.188 10.987-1.132 1.74-2.094 3.565-3.172 6.013z" mask="url(#b)"/></g></svg>