<svg xmlns="http://www.w3.org/2000/svg" xmlns:xlink="http://www.w3.org/1999/xlink" width="100" height="100" viewBox="0 0 100 100"><defs><rect id="a" width="64" height="72" x="18" y="14" rx="2"/></defs><g fill="none" fill-rule="evenodd"><path d="M0 0h100v100H0z"/><use fill="#FAFAFA" xlink:href="#a"/><rect width="63" height="71" x="18.5" y="14.5" stroke="#DCDCDC" rx="2"/><path fill="#F55" fill-rule="nonzero" d="M45.176 61.632c-1.119 2.109-2.469 4.31-3.41 5.483-3.1 4.353-8.26 6.206-10.24 2.369-1.521-2.95.257-5.987 3.582-8.003.672-.423 4.099-1.759 7.152-2.914.5-1.001.869-1.853.974-2.314l.029-.129.046-.124c1.525-4.102 3.59-10.425 3.912-12.115.033-.173.135-.584.263-1.075-1.915-4.262-3.431-8.33-3.431-9.994 0-5.941 7.04-6.48 8.775-1.08.53 1.65.456 3.714-.032 6.29a44.799 44.799 0 0 1-.7 3.034c.001-.005-.176.64-.378 1.387 1.987 4.236 4.272 8.545 5.453 10.08.275.271.55.537.824.796 4.082-1.12 6.877-1.58 8.183-1.209 5.366 1.523 4.436 9.989-1.063 9.989-1.942 0-4.076-1.105-6.544-3.002a37.161 37.161 0 0 1-1.595-1.298 265.581 265.581 0 0 0-11.8 3.83zm4.958-13.296a187.05 187.05 0 0 1-2.816 8.352 262.163 262.163 0 0 1 6.403-2.102c-.948-1.341-2.248-3.63-3.587-6.25zM49.019 32.96c-.414-1.29-.966-1.249-.966-.144 0 .595.377 1.839.985 3.432.21-1.464.205-2.593-.019-3.288zM37.372 64.77l-.092.071-.098.06c-1.616.98-2.29 1.988-2.155 2.598a1.98 1.98 0 0 0 .474-.118c.952-.345 2.087-1.28 3.035-2.626l.084-.11c.167-.206.358-.465.564-.764-.925.387-1.563.696-1.812.89zm27.743-6.667c.758 0 .962-1.86-.03-2.141-.39-.111-1.615.102-3.347.528 1.395 1.006 2.583 1.613 3.377 1.613z"/></g></svg>