<svg xmlns="http://www.w3.org/2000/svg" xmlns:xlink="http://www.w3.org/1999/xlink" width="100" height="100" viewBox="0 0 100 100"><defs><rect id="a" width="64" height="72" x="18" y="14" rx="2"/></defs><g fill="none" fill-rule="evenodd"><path d="M0 0h100v100H0z"/><use fill="#FAFAFA" xlink:href="#a"/><rect width="63" height="71" x="18.5" y="14.5" stroke="#DCDCDC" rx="2"/><path fill="#01BD88" d="M59.802 37.422C62.986 39.926 65 43.7 65 48.152H35c0-4.451 2.014-8.226 5.198-10.73l-2.343-2.998a1.5 1.5 0 1 1 2.364-1.847l2.529 3.236c2.15-1.069 4.621-1.66 7.252-1.66 2.63 0 5.103.591 7.252 1.66l2.529-3.236a1.5 1.5 0 1 1 2.364 1.847l-2.343 2.998zM35 52.152h30v16H35v-16zm21-7a2 2 0 1 0 0-4 2 2 0 0 0 0 4zm-12 0a2 2 0 1 0 0-4 2 2 0 0 0 0 4z"/></g></svg>