<svg xmlns="http://www.w3.org/2000/svg" xmlns:xlink="http://www.w3.org/1999/xlink" width="218" height="218" viewBox="0 0 218 218"><defs><path id="a" d="M0 0h210v210H0z"/><rect id="c" width="180" height="210" x="15" rx="4"/></defs><g fill="none" fill-rule="evenodd" transform="translate(4 4)"><mask id="b" fill="#fff"><use xlink:href="#a"/></mask><g mask="url(#b)"><use fill="#FAFAFA" xlink:href="#c"/><rect width="179" height="209" x="15.5" y=".5" stroke="#DCDCDC" rx="4"/></g><path fill="#4C94F0" d="M81 112v24H69V72h20c11.046 0 20 8.954 20 20s-8.954 20-20 20h-8zm0-28v16h7.995A7.997 7.997 0 0 0 97 92c0-4.41-3.584-8-8.005-8H81zm59.963 5.566v10.553C137.548 97.98 124 95.023 124 101c0 6.447 19 5.805 19 21 0 12.143-15.52 17.606-29.416 11.22v-11.162C120.596 126.664 131 127.527 131 122c0-6.478-18-5.595-18-21 0-15.26 21.86-14.221 27.963-11.434z" mask="url(#b)"/></g></svg>