<svg xmlns="http://www.w3.org/2000/svg" xmlns:xlink="http://www.w3.org/1999/xlink" width="100" height="100" viewBox="0 0 100 100"><defs><rect id="a" width="64" height="72" x="18" y="14" rx="2"/></defs><g fill="none" fill-rule="evenodd"><path d="M0 0h100v100H0z"/><use fill="#FAFAFA" xlink:href="#a"/><rect width="63" height="71" x="18.5" y="14.5" stroke="#DCDCDC" rx="2"/><path fill="#4C94F0" d="M38 54v12h-6V34h10c5.523 0 10 4.477 10 10s-4.477 10-10 10h-4zm0-14v8h4.007A3.996 3.996 0 0 0 46 44a4 4 0 0 0-3.993-4H38zm29.982 2.783v5.277c-1.708-1.07-8.482-2.549-8.482.44 0 3.224 9.5 2.903 9.5 10.5 0 6.072-7.76 8.803-14.708 5.61v-5.58C57.798 61.332 63 61.763 63 59c0-3.24-9-2.798-9-10.5 0-7.63 10.93-7.11 13.982-5.717z"/></g></svg>