<svg xmlns="http://www.w3.org/2000/svg" xmlns:xlink="http://www.w3.org/1999/xlink" width="100" height="100" viewBox="0 0 100 100"><defs><path id="a" d="M26 14h54a2 2 0 0 1 2 2v68a2 2 0 0 1-2 2H26a2 2 0 0 1-2-2V16a2 2 0 0 1 2-2z"/></defs><g fill="none" fill-rule="evenodd"><use fill="#FAFAFA" xlink:href="#a"/><path stroke="#DCDCDC" d="M26 14.5a1.5 1.5 0 0 0-1.5 1.5v68a1.5 1.5 0 0 0 1.5 1.5h54a1.5 1.5 0 0 0 1.5-1.5V16a1.5 1.5 0 0 0-1.5-1.5H26z"/><path fill="#E5E5E5" d="M37 39l-.96 1.152L55 55.952l18-15V67H33V39h4zm2.343 0h31.314L55 52.047 39.343 39z"/><path fill="#0083EA" d="M17.896 33.445l32-3.33a1 1 0 0 1 1.104.994v43.782a1 1 0 0 1-1.104.994l-32-3.33A1 1 0 0 1 17 71.56V34.44a1 1 0 0 1 .896-.995z"/><path fill="#FFF" fill-rule="nonzero" d="M33 59.682c3.11.11 5.4-2.253 5.4-6.682 0-4.416-2.307-6.791-5.4-6.682-3.086.11-5.2 2.522-5.2 6.682 0 4.172 2.098 6.572 5.2 6.682zm0 3.818c-4.521-.251-8.5-3.837-8.5-10.5s4.008-10.25 8.5-10.5 9 3.152 9 10.5-4.479 10.751-9 10.5z"/></g></svg>