<svg xmlns="http://www.w3.org/2000/svg" xmlns:xlink="http://www.w3.org/1999/xlink" width="218" height="218" viewBox="0 0 218 218"><defs><path id="a" d="M19 0h172a4 4 0 0 1 4 4v202a4 4 0 0 1-4 4H19a4 4 0 0 1-4-4V4a4 4 0 0 1 4-4z"/></defs><g fill="none" fill-rule="evenodd" transform="translate(4 4)"><path d="M0 0h210v210H0z"/><use fill="#FAFAFA" xlink:href="#a"/><path stroke="#DCDCDC" d="M19 .5A3.5 3.5 0 0 0 15.5 4v202a3.5 3.5 0 0 0 3.5 3.5h172a3.5 3.5 0 0 0 3.5-3.5V4A3.5 3.5 0 0 0 191 .5H19z"/><path fill="#FF8127" d="M84.678 121L80.6 136H69l17.4-64h13.2l17.4 64h-11.6l-4.078-15H84.678zm3.263-12h10.118L93 90.39 87.94 109zM125 91h12v45h-12V91zm6-4a8 8 0 1 1 0-16 8 8 0 0 1 0 16z"/></g></svg>