<svg xmlns="http://www.w3.org/2000/svg" xmlns:xlink="http://www.w3.org/1999/xlink" width="100" height="100" viewBox="0 0 100 100"><defs><rect id="a" width="64" height="72" x="18" y="14" rx="2"/><rect id="b" width="64" height="72" x="18" y="14" rx="2"/></defs><g fill="none" fill-rule="evenodd"><path d="M0 0h100v100H0z"/><use fill="#FAFAFA" xlink:href="#a"/><rect width="63" height="71" x="18.5" y="14.5" stroke="#DCDCDC" rx="2"/><path d="M60.201 63.795c0 .475.481 1.271 1.443 2.389.343.398.359 1.063.036 1.486a.787.787 0 0 1-.62.33h-5.12c-.471 0-.853-.47-.853-1.051 0-.289.096-.564.266-.763.958-1.119 1.436-1.916 1.436-2.39h.004c.032-1.26-1.849-2.43-3.905-3.71C47.84 57.39 44 51.408 44 45.478 44 37.482 50.492 31 58.5 31S73 37.482 73 45.478c0 5.93-3.838 11.912-8.89 14.608-2.055 1.28-3.936 2.45-3.904 3.71H60.2zM47 60.272c-1.316 1.205-2.353 2.311-2.154 3.264l-.772.132.767-.13c.078.428.643 1.072 1.694 1.933.375.306.498.904.276 1.335a.712.712 0 0 1-.506.394l-4.62.79c-.425.074-.846-.292-.942-.816a1.074 1.074 0 0 1 .116-.73c.68-1.158.982-1.951.904-2.38l.773-.132-.77.131c-.177-1.141-2.067-1.907-4.132-2.746-5.001-1.653-9.446-6.46-10.418-11.814a13.12 13.12 0 0 1 10.714-15.31 13.306 13.306 0 0 1 5.81.29 18.361 18.361 0 0 0-3.44 10.752c0 5.582 2.64 11.228 6.7 15.037z" fill="#01BD88"/><path d="M0 0h100v100H0z"/><use fill="#FAFAFA" xlink:href="#b"/><rect width="63" height="71" x="18.5" y="14.5" stroke="#DCDCDC" rx="2"/><path fill="#65A8FF" d="M60.201 63.795c0 .475.481 1.271 1.443 2.389.343.398.359 1.063.036 1.486a.787.787 0 0 1-.62.33h-5.12c-.471 0-.853-.47-.853-1.051 0-.289.096-.564.266-.763.958-1.119 1.436-1.916 1.436-2.39h.004c.032-1.26-1.849-2.43-3.905-3.71C47.84 57.39 44 51.408 44 45.478 44 37.482 50.492 31 58.5 31S73 37.482 73 45.478c0 5.93-3.838 11.912-8.89 14.608-2.055 1.28-3.936 2.45-3.904 3.71H60.2z"/><path fill="#4C94F0" d="M47.339 61.236c-1.354 1.22-2.43 2.338-2.226 3.3l-.004.001c.079.429.652 1.073 1.719 1.934.38.306.505.904.28 1.335a.72.72 0 0 1-.514.394l-4.688.79c-.432.074-.86-.292-.957-.816a1.06 1.06 0 0 1 .117-.73c.691-1.158.997-1.951.918-2.38h.004c-.18-1.142-2.098-1.908-4.195-2.747-5.076-1.653-9.587-6.46-10.574-11.814-1.33-7.22 3.538-14.074 10.875-15.31a13.71 13.71 0 0 1 5.008.08A18.532 18.532 0 0 0 40 45.568c0 5.857 2.9 11.762 7.339 15.667z"/></g></svg>