<svg xmlns="http://www.w3.org/2000/svg" xmlns:xlink="http://www.w3.org/1999/xlink" width="218" height="218" viewBox="0 0 218 218"><defs><path id="a" d="M19 0h172a4 4 0 0 1 4 4v202a4 4 0 0 1-4 4H19a4 4 0 0 1-4-4V4a4 4 0 0 1 4-4z"/></defs><g fill="none" fill-rule="evenodd" transform="translate(4 4)"><path d="M0 0h210v210H0z"/><use fill="#FAFAFA" xlink:href="#a"/><path stroke="#DCDCDC" d="M19 .5A3.5 3.5 0 0 0 15.5 4v202a3.5 3.5 0 0 0 3.5 3.5h172a3.5 3.5 0 0 0 3.5-3.5V4A3.5 3.5 0 0 0 191 .5H19z"/><path fill="#01BD88" d="M124.605 78.843C130.97 83.852 135 91.402 135 100.304H75c0-8.902 4.029-16.452 10.395-21.46l-4.684-5.997a3 3 0 0 1 4.728-3.694l5.056 6.472c4.3-2.137 9.244-3.32 14.505-3.32 5.261 0 10.206 1.183 14.505 3.32l5.056-6.472a3 3 0 1 1 4.728 3.694l-4.684 5.996zM75 108.304h60v32H75v-32zm42-14a4 4 0 1 0 0-8 4 4 0 0 0 0 8zm-24 0a4 4 0 1 0 0-8 4 4 0 0 0 0 8z"/></g></svg>