<svg xmlns="http://www.w3.org/2000/svg" xmlns:xlink="http://www.w3.org/1999/xlink" width="218" height="218" viewBox="0 0 218 218"><defs><path id="a" d="M19 0h172a4 4 0 0 1 4 4v202a4 4 0 0 1-4 4H19a4 4 0 0 1-4-4V4a4 4 0 0 1 4-4z"/></defs><g fill="none" fill-rule="evenodd" transform="translate(4 4)"><path d="M0 0h210v210H0z"/><use fill="#FAFAFA" xlink:href="#a"/><path stroke="#DCDCDC" d="M19 .5A3.5 3.5 0 0 0 15.5 4v202a3.5 3.5 0 0 0 3.5 3.5h172a3.5 3.5 0 0 0 3.5-3.5V4A3.5 3.5 0 0 0 191 .5H19z"/><path fill="#FFA72B" fill-rule="nonzero" d="M122.1 104H87.9l17.1 18.382L122.1 104zM82.911 92h44.176l-5.44-8H88.352l-5.44 8zM82 72h46l17 25-40 43-40-43 17-25z"/></g></svg>