<svg xmlns="http://www.w3.org/2000/svg" xmlns:xlink="http://www.w3.org/1999/xlink" width="218" height="218" viewBox="0 0 218 218"><defs><path id="a" d="M24 0h162a4 4 0 0 1 4 4v202a4 4 0 0 1-4 4H24a4 4 0 0 1-4-4V4a4 4 0 0 1 4-4z"/></defs><g fill="none" fill-rule="evenodd" transform="translate(9 4)"><use fill="#FAFAFA" xlink:href="#a"/><path stroke="#DCDCDC" d="M24 .5A3.5 3.5 0 0 0 20.5 4v202a3.5 3.5 0 0 0 3.5 3.5h162a3.5 3.5 0 0 0 3.5-3.5V4A3.5 3.5 0 0 0 186 .5H24z"/><path fill="#E5E5E5" d="M47 70h118v8H47v-8zm0 20h118v8H47v-8zm0 20h118v8H47v-8zm0 20h118v8H47v-8zm0 20h118v8H47v-8z"/><path fill="#3A74D1" d="M.9 56.91l98-9.8a1 1 0 0 1 1.1.995v131.79a1 1 0 0 1-1.1.995l-98-9.8a1 1 0 0 1-.9-.995V57.905a1 1 0 0 1 .9-.995z"/><path fill="#FFF" d="M59.676 121.338l8.265-32.592 10.677-.963-14.236 56.98-9.786-.863-8.007-32.12-8.008 30.736-9.787-.828-11.323-48.371 10.676-.882 5.354 28.538 7.749-29.891 10.676-.922z"/></g></svg>