<?xml version="1.0" encoding="UTF-8" standalone="no"?>
<svg width="24px" height="24px" viewBox="0 0 24 24" version="1.1" xmlns="http://www.w3.org/2000/svg" xmlns:xlink="http://www.w3.org/1999/xlink">
    <!-- Generator: Sketch 3.8.1 (29687) - http://www.bohemiancoding.com/sketch -->
    <title>icon-clear</title>
    <desc>Created with Sketch.</desc>
    <defs></defs>
    <g id="Page-1" stroke="none" stroke-width="1" fill="none" fill-rule="evenodd">
        <g id="icon" transform="translate(-902.000000, -891.000000)" fill="#575A5F">
            <g id="20" transform="translate(61.000000, 169.000000)">
                <g id="ic" transform="translate(0.000000, 721.000000)">
                    <g id="nor" transform="translate(1.000000, 0.000000)">
                        <path d="M852.011766,11.5975523 L853.302162,10.3071558 C853.687162,9.92215652 854.325925,9.91655808 854.716449,10.3070824 C855.109696,10.7003293 855.106941,11.3308045 854.716376,11.7213694 L853.425979,13.0117658 L854.716376,14.3021623 C855.106941,14.6927271 855.109696,15.3232024 854.716449,15.7164493 C854.325925,16.1069736 853.687162,16.1013752 853.302162,15.7163758 L852.011766,14.4259794 L850.721369,15.7163758 C850.33637,16.1013752 849.697607,16.1069736 849.307082,15.7164493 C848.913835,15.3232024 848.916591,14.6927271 849.307156,14.3021623 L850.597552,13.0117658 L849.307156,11.7213694 C848.916591,11.3308045 848.913835,10.7003293 849.307082,10.3070824 C849.697607,9.91655808 850.33637,9.92215652 850.721369,10.3071558 L852.011766,11.5975523 Z M848.996397,5 L843.989795,5 C843.441344,5 842.996397,5.44771525 842.996397,6 C842.996397,6.55613518 843.441157,7 843.989795,7 L860.003,7 C860.551451,7 860.996397,6.55228475 860.996397,6 C860.996397,5.44386482 860.551638,5 860.003,5 L854.996397,5 C854.996397,4.44386482 854.552811,4 854.005619,4 L849.987175,4 C849.447373,4 848.996397,4.44771525 848.996397,5 Z M844.996397,7 L858.996397,7 L858.996397,18.9941413 C858.996397,20.1019465 858.099337,21 856.990539,21 L847.002256,21 C845.894451,21 844.996397,20.1029399 844.996397,18.9941413 L844.996397,7 Z M846.996397,7 L856.996397,7 L856.996397,19 L846.996397,19 L846.996397,7 Z" id="ic_clear_nor"></path>
                    </g>
                </g>
            </g>
        </g>
    </g>
</svg>