<?xml version="1.0" encoding="UTF-8"?>
<svg width="48px" height="48px" viewBox="0 0 48 48" version="1.1" xmlns="http://www.w3.org/2000/svg" xmlns:xlink="http://www.w3.org/1999/xlink">
    <!-- Generator: Sketch 50.2 (55047) - http://www.bohemiancoding.com/sketch -->
    <title>list/ic/more</title>
    <desc>Created with Sketch.</desc>
    <defs></defs>
    <g id="Symbols" stroke="none" stroke-width="1" fill="none" fill-rule="evenodd">
        <g id="list/ic/more" fill="#BBBBBB">
            <path d="M12,28 C9.790861,28 8,26.209139 8,24 C8,21.790861 9.790861,20 12,20 C14.209139,20 16,21.790861 16,24 C16,26.209139 14.209139,28 12,28 Z M24,28 C21.790861,28 20,26.209139 20,24 C20,21.790861 21.790861,20 24,20 C26.209139,20 28,21.790861 28,24 C28,26.209139 26.209139,28 24,28 Z M36,28 C33.790861,28 32,26.209139 32,24 C32,21.790861 33.790861,20 36,20 C38.209139,20 40,21.790861 40,24 C40,26.209139 38.209139,28 36,28 Z" id="navbar_ic_white_more"></path>
        </g>
    </g>
</svg>