<svg xmlns="http://www.w3.org/2000/svg" width="20" height="20" viewBox="0 0 20 20">
    <g fill="none" fill-rule="evenodd">
        <path fill="#FFCC68" d="M7.866 6.887h8a2 2 0 0 1 2 2v5.23a2 2 0 0 1-2 2h-2.725l-1.275.908-1.218-.908H7.866a2 2 0 0 1-2-2v-5.23a2 2 0 0 1 2-2z"/>
        <path stroke="#84560D" d="M9.507 16.1l2.322-1.6H15a1.5 1.5 0 0 0 1.5-1.5V5A1.5 1.5 0 0 0 15 3.5H4A1.5 1.5 0 0 0 2.5 5v8A1.5 1.5 0 0 0 4 14.5h3.291l2.216 1.6z"/>
        <path fill-rule="nonzero" stroke="#84560D" d="M5.5 9.508a.5.5 0 1 0 0-1 .5.5 0 0 0 0 1zM9.5 9.508a.5.5 0 1 0 0-1 .5.5 0 0 0 0 1zM13.5 9.508a.5.5 0 1 0 0-1 .5.5 0 0 0 0 1z"/>
    </g>
</svg>
