<?xml version="1.0" encoding="UTF-8"?>
<svg width="56px" height="56px" viewBox="0 0 56 56" version="1.1" xmlns="http://www.w3.org/2000/svg" xmlns:xlink="http://www.w3.org/1999/xlink">
    <!-- Generator: Sketch 48.2 (47327) - http://www.bohemiancoding.com/sketch -->
    <title>icon_complete</title>
    <desc>Created with Sketch.</desc>
    <defs>
        <circle id="path-1" cx="27" cy="28" r="18"></circle>
        <filter x="-50.0%" y="-50.0%" width="200.0%" height="200.0%" filterUnits="objectBoundingBox" id="filter-2">
            <feOffset dx="0" dy="0" in="SourceAlpha" result="shadowOffsetOuter1"></feOffset>
            <feGaussianBlur stdDeviation="6" in="shadowOffsetOuter1" result="shadowBlurOuter1"></feGaussianBlur>
            <feColorMatrix values="0 0 0 0 0.960784314   0 0 0 0 0.650980392   0 0 0 0 0.137254902  0 0 0 0.2 0" type="matrix" in="shadowBlurOuter1"></feColorMatrix>
        </filter>
        <linearGradient x1="50%" y1="100%" x2="50%" y2="0%" id="linearGradient-3">
            <stop stop-color="#FFEA9B" offset="0%"></stop>
            <stop stop-color="#F9803C" offset="100%"></stop>
        </linearGradient>
        <path d="M30,35 L22,35 C20.8954305,35 20,34.1045695 20,33 L20,31 C20,29.8954305 20.8954305,29 22,29 L28,29 L28,17 C28,15.8954305 28.8954305,15 30,15 L32,15 C33.1045695,15 34,15.8954305 34,17 L34,33 C34,34.1045695 33.1045695,35 32,35 L30,35 Z" id="path-4"></path>
        <filter x="-17.9%" y="-12.5%" width="135.7%" height="125.0%" filterUnits="objectBoundingBox" id="filter-5">
            <feGaussianBlur stdDeviation="2" in="SourceAlpha" result="shadowBlurInner1"></feGaussianBlur>
            <feOffset dx="-1" dy="-1" in="shadowBlurInner1" result="shadowOffsetInner1"></feOffset>
            <feComposite in="shadowOffsetInner1" in2="SourceAlpha" operator="arithmetic" k2="-1" k3="1" result="shadowInnerInner1"></feComposite>
            <feColorMatrix values="0 0 0 0 0.988235294   0 0 0 0 0.745098039   0 0 0 0 0.454901961  0 0 0 1 0" type="matrix" in="shadowInnerInner1"></feColorMatrix>
        </filter>
    </defs>
    <g id="asset" stroke="none" stroke-width="1" fill="none" fill-rule="evenodd" transform="translate(-215.000000, -698.000000)">
        <g id="svg" transform="translate(100.000000, 100.000000)"></g>
        <g id="icon_complete" transform="translate(216.000000, 699.000000)">
            <g id="Oval">
                <use fill="black" fill-opacity="1" filter="url(#filter-2)" xlink:href="#path-1"></use>
                <use fill="#FFFFFF" fill-rule="evenodd" xlink:href="#path-1"></use>
            </g>
            <path d="M27,0 C27.5522847,-1.01453063e-16 28,0.44771525 28,1 L28,3 C28,3.55228475 27.5522847,4 27,4 C26.4477153,4 26,3.55228475 26,3 L26,1 C26,0.44771525 26.4477153,1.01453063e-16 27,0 Z M53.6295825,19.3475242 C53.8002478,19.8727782 53.5127969,20.4369323 52.9875429,20.6075977 L51.0854299,21.2256317 C50.5601759,21.396297 49.9960218,21.1088461 49.8253564,20.5835921 C49.654691,20.0583381 49.9421419,19.494184 50.4673959,19.3235186 L52.3695089,18.7054846 C52.894763,18.5348193 53.4589171,18.8222701 53.6295825,19.3475242 Z M43.4579871,50.6524758 C43.0111793,50.9771007 42.3858096,50.8780518 42.0611848,50.4312441 L40.8856143,48.8132101 C40.5609895,48.3664024 40.6600383,47.7410327 41.1068461,47.4164079 C41.5536538,47.091783 42.1790235,47.1908319 42.5036483,47.6376396 L43.6792188,49.2556736 C44.0038436,49.7024813 43.9047948,50.327851 43.4579871,50.6524758 Z M10.5420129,50.6524758 C10.0952052,50.327851 9.99615636,49.7024813 10.3207812,49.2556736 L11.4963517,47.6376396 C11.8209765,47.1908319 12.4463462,47.091783 12.8931539,47.4164079 C13.3399617,47.7410327 13.4390105,48.3664024 13.1143857,48.8132101 L11.9388152,50.4312441 C11.6141904,50.8780518 10.9888207,50.9771007 10.5420129,50.6524758 Z M0.370417544,19.3475242 C0.541082917,18.8222701 1.10523704,18.5348193 1.63049105,18.7054846 L3.53260409,19.3235186 C4.0578581,19.494184 4.34530898,20.0583381 4.17464361,20.5835921 C4.00397824,21.1088461 3.43982411,21.396297 2.9145701,21.2256317 L1.01245707,20.6075977 C0.487203055,20.4369323 0.19975217,19.8727782 0.370417544,19.3475242 Z" id="Rectangle-8" fill="#FFFFFF" opacity="0.2"></path>
            <path d="M27,51 C27.5522847,51 28,51.4477153 28,52 L28,53 C28,53.5522847 27.5522847,54 27,54 C26.4477153,54 26,53.5522847 26,53 L26,52 C26,51.4477153 26.4477153,51 27,51 Z M5.12570013,35.1073909 C5.2963655,35.6326449 5.00891461,36.196799 4.4836606,36.3674644 L3.53260409,36.6764814 C3.00735008,36.8471467 2.44319595,36.5596959 2.27253058,36.0344419 C2.1018652,35.5091878 2.38931609,34.9450337 2.9145701,34.7743683 L3.86562661,34.4653513 C4.39088062,34.294686 4.95503475,34.5821369 5.12570013,35.1073909 Z M13.4809392,9.39260913 C13.0341314,9.71723396 12.4087618,9.61818514 12.084137,9.17137739 L11.4963517,8.36236039 C11.1717269,7.91555264 11.2707757,7.29018298 11.7175834,6.96555815 C12.1643912,6.64093332 12.7897609,6.73998214 13.1143857,7.18678989 L13.7021709,7.99580688 C14.0267958,8.44261463 13.9277469,9.0679843 13.4809392,9.39260913 Z M40.5190608,9.39260913 C40.0722531,9.0679843 39.9732042,8.44261463 40.2978291,7.99580688 L40.8856143,7.18678989 C41.2102391,6.73998214 41.8356088,6.64093332 42.2824166,6.96555815 C42.7292243,7.29018298 42.8282731,7.91555264 42.5036483,8.36236039 L41.915863,9.17137739 C41.5912382,9.61818514 40.9658686,9.71723396 40.5190608,9.39260913 Z M48.8742999,35.1073909 C49.0449652,34.5821369 49.6091194,34.294686 50.1343734,34.4653513 L51.0854299,34.7743683 C51.6106839,34.9450337 51.8981348,35.5091878 51.7274694,36.0344419 C51.5568041,36.5596959 50.9926499,36.8471467 50.4673959,36.6764814 L49.5163394,36.3674644 C48.9910854,36.196799 48.7036345,35.6326449 48.8742999,35.1073909 Z" id="Rectangle-11" fill="#FFFFFF" opacity="0.3"></path>
            <g id="Combined-Shape" transform="translate(27.000000, 25.000000) rotate(-315.000000) translate(-27.000000, -25.000000) ">
                <use fill="url(#linearGradient-3)" fill-rule="evenodd" xlink:href="#path-4"></use>
                <use fill="black" fill-opacity="1" filter="url(#filter-5)" xlink:href="#path-4"></use>
            </g>
        </g>
    </g>
</svg>