<?xml version="1.0" encoding="UTF-8"?>
<svg width="240px" height="176px" viewBox="0 0 240 176" version="1.1" xmlns="http://www.w3.org/2000/svg" xmlns:xlink="http://www.w3.org/1999/xlink">
    <!-- Generator: Sketch 48.2 (47327) - http://www.bohemiancoding.com/sketch -->
    <title>img_shin</title>
    <desc>Created with Sketch.</desc>
    <defs>
        <linearGradient x1="36.4734717%" y1="62.3803627%" x2="101.29758%" y2="-5.28483792%" id="linearGradient-1">
            <stop stop-color="#939393" stop-opacity="0" offset="0%"></stop>
            <stop stop-color="#EEEEEE" stop-opacity="0" offset="29.6553065%"></stop>
            <stop stop-color="#818181" offset="100%"></stop>
        </linearGradient>
        <linearGradient x1="-0.0407830343%" y1="49.5024876%" x2="100%" y2="49.5024876%" id="linearGradient-2">
            <stop stop-color="#FF931D" offset="0%"></stop>
            <stop stop-color="#FFAC52" offset="100%"></stop>
        </linearGradient>
        <linearGradient x1="50.1765253%" y1="100.037658%" x2="50.1765253%" y2="0%" id="linearGradient-3">
            <stop stop-color="#FFAC52" offset="0%"></stop>
            <stop stop-color="#E88315" offset="100%"></stop>
        </linearGradient>
        <linearGradient x1="49.9924593%" y1="100.063662%" x2="49.9924593%" y2="-0.127323657%" id="linearGradient-4">
            <stop stop-color="#FFCA45" offset="0%"></stop>
            <stop stop-color="#EF8818" offset="100%"></stop>
        </linearGradient>
        <linearGradient x1="0.0217242781%" y1="49.9963431%" x2="100.031077%" y2="49.9963431%" id="linearGradient-5">
            <stop stop-color="#FFBB43" offset="0%"></stop>
            <stop stop-color="#FF8F15" offset="100%"></stop>
        </linearGradient>
    </defs>
    <g id="asset" stroke="none" stroke-width="1" fill="none" fill-rule="evenodd" transform="translate(-100.000000, -360.000000)">
        <g id="svg" transform="translate(100.000000, 100.000000)"></g>
        <g id="img_shin" transform="translate(172.000000, 360.000000)">
            <polygon id="Path-2" fill="url(#linearGradient-1)" style="mix-blend-mode: multiply;" points="26.0550156 111 -2.27373675e-13 138.626246 9.96958683 144.663821 39.3485487 118.066092"></polygon>
            <g id="icon_shin" transform="translate(18.000000, 0.000000)" fill-rule="nonzero">
                <path d="M58.73,47.1173554 C58.9425999,47.1040834 59.1545119,47.152317 59.34,47.2561983 L48.21,40.968595 L48.1,40.9190083 L47.99,40.9190083 L47.86,40.9190083 L47.42,40.9190083 L47.22,40.9190083 L46.94,41.0082645 L46.82,41.0578512 L34.82,46.5818182 L45.95,52.8793388 L57.95,47.3553719 C58.1919425,47.2313073 58.4579534,47.1602808 58.73,47.1471074 L58.73,47.1173554 Z" id="Shape" fill="url(#linearGradient-2)"></path>
                <path d="M18.91,117.838017 C18.8418657,117.565815 18.8215684,117.284001 18.85,117.004959 L25.17,72.4561983 L14,66.168595 L7.68,110.717355 C7.63751863,110.983467 7.63751863,111.25455 7.68,111.520661 C7.68,111.629752 7.68,111.78843 7.68,111.887603 C7.76633082,112.164676 7.9558478,112.398728 8.21,112.542149 L19.34,118.839669 C19.0858534,118.691604 18.8967854,118.454568 18.81,118.175207 C18.9,118.105785 18.93,117.947107 18.91,117.838017 Z" id="Shape" fill="url(#linearGradient-3)"></path>
                <path d="M50,6.59504132 C50.2690343,6.43746068 50.5692093,6.3393569 50.88,6.30743802 C51.136138,6.28210455 51.3940271,6.33394735 51.62,6.45619835 L40.49,0.158677686 L40.37,0.0991735537 L40.25,0.0991735537 L40.12,0.0991735537 L39.98,0.0991735537 L39.65,0.0991735537 L39.44,0.0991735537 L39.17,0.188429752 L38.86,0.347107438 C38.5970014,0.492991431 38.3548553,0.673100092 38.14,0.882644628 L38,0.991735537 L37.92,1.08099174 L37.74,1.27933884 C37.6900118,1.3430865 37.6432862,1.40928572 37.6,1.47768595 L37.46,1.67603306 L37.34,1.87438017 C37.3028833,1.93172103 37.2694826,1.99134558 37.24,2.05289256 L0.54,68.3305785 C0.502685914,68.3946455 0.469292253,68.4608809 0.44,68.5289256 C0.401971697,68.5876455 0.371723146,68.6509758 0.35,68.7173554 L0.26,68.9157025 C0.26,68.985124 0.21,69.0545455 0.19,69.1239669 C0.162181791,69.1918258 0.138800049,69.2613913 0.12,69.3322314 C0.12,69.3322314 0.12,69.3917355 0.12,69.4214876 L0.12,69.5603306 C0.12,69.6595041 0.12,69.7586777 0.07,69.8578512 C0.02,69.9570248 0.07,69.9867769 0.07,70.0561983 C0.0485099672,70.3024328 0.0687909762,70.5504981 0.13,70.7900826 C0.144156923,70.8805286 0.164198772,70.9699715 0.19,71.0578512 C0.281459729,71.3183527 0.457263021,71.5415212 0.69,71.692562 L11.83,77.9900826 C11.5967432,77.8396032 11.4207848,77.6162377 11.33,77.3553719 C11.2972835,77.265388 11.2738308,77.1723523 11.26,77.077686 C11.2085734,76.8399438 11.1884057,76.5965981 11.2,76.353719 C11.2081376,76.1402548 11.2349043,75.9278909 11.28,75.7190083 C11.3829674,75.3348392 11.534149,74.9650065 11.73,74.6181818 L48.43,8.33057851 C48.6382871,7.95019748 48.8935902,7.59705969 49.19,7.27933884 C49.4289609,7.01739519 49.7012422,6.78736878 50,6.59504132 Z" id="Shape" fill="url(#linearGradient-4)"></path>
                <path d="M50,6.59504132 C51.28,5.88099174 52.51,6.43636364 52.25,8.30082645 L45.93,52.8495868 L57.93,47.3256198 C59.78,46.4628099 60.64,48.446281 59.41,50.6677686 L22.71,116.955372 C22.3374033,117.676382 21.7739248,118.283201 21.08,118.710744 C19.8,119.424793 18.58,118.859504 18.83,117.004959 L25.15,72.4561983 L13.15,77.9801653 C11.32,78.8330579 10.44,76.8595041 11.67,74.6380165 L48.37,8.35041322 C48.7454658,7.63139177 49.3083094,7.02525686 50,6.59504132 Z" id="Shape" fill="url(#linearGradient-5)"></path>
            </g>
        </g>
    </g>
</svg>