<svg width="500" height="200" xmlns="http://www.w3.org/2000/svg" xmlns:xlink="http://www.w3.org/1999/xlink"><defs><filter x="-6.8%" y="-25%" width="113.6%" height="150%" filterUnits="objectBoundingBox" id="a"><feGaussianBlur stdDeviation="10" in="SourceGraphic"/></filter><filter x="0%" y="0%" width="100%" height="100%" filterUnits="objectBoundingBox" id="b"><feGaussianBlur in="SourceGraphic"/></filter><filter x="-7.3%" y="-32.1%" width="114.5%" height="164.3%" filterUnits="objectBoundingBox" id="c"><feGaussianBlur stdDeviation="6" in="SourceGraphic"/></filter><text id="e" font-family="PingFangSC-Semibold, PingFang SC" font-size="48" font-weight="500" letter-spacing="2" fill="#F77039"><tspan x="83" y="87">快来砍价</tspan> <tspan x="283" y="87">吧</tspan></text><filter x="-5.2%" y="-19.6%" width="110.5%" height="146.4%" filterUnits="objectBoundingBox" id="d"><feOffset dy="2" in="SourceAlpha" result="shadowOffsetOuter1"/><feGaussianBlur stdDeviation="4" in="shadowOffsetOuter1" result="shadowBlurOuter1"/><feColorMatrix values="0 0 0 0 0.898039216 0 0 0 0 0.470588235 0 0 0 0 0.415686275 0 0 0 0.202955163 0" in="shadowBlurOuter1"/></filter><filter x="-14.7%" y="-253.6%" width="129.4%" height="607.1%" filterUnits="objectBoundingBox" id="f"><feGaussianBlur stdDeviation="20.285" in="SourceGraphic"/></filter><text id="h" font-family="PingFangSC-Medium, PingFang SC" font-size="30" font-weight="400" fill="#FF814E"><tspan x="0" y="32">我在“晓商+零售”发现一件好货</tspan></text><filter x="-3.1%" y="-45.8%" width="106.3%" height="208.3%" filterUnits="objectBoundingBox" id="g"><feOffset dy="2" in="SourceAlpha" result="shadowOffsetOuter1"/><feGaussianBlur stdDeviation="4" in="shadowOffsetOuter1" result="shadowBlurOuter1"/><feColorMatrix values="0 0 0 0 0.898039216 0 0 0 0 0.470588235 0 0 0 0 0.415686275 0 0 0 0.2 0" in="shadowBlurOuter1"/></filter><filter x="-35.8%" y="-190.8%" width="171.6%" height="481.7%" filterUnits="objectBoundingBox" id="i"><feGaussianBlur stdDeviation="34.353" in="SourceGraphic"/></filter><filter x="-131.2%" y="-71.6%" width="362.5%" height="243.2%" filterUnits="objectBoundingBox" id="j"><feGaussianBlur stdDeviation="10" in="SourceGraphic"/></filter><filter x="-131.2%" y="-71.6%" width="362.5%" height="243.2%" filterUnits="objectBoundingBox" id="k"><feGaussianBlur stdDeviation="10" in="SourceGraphic"/></filter></defs><g fill="none" fill-rule="evenodd"><g stroke="#542772" stroke-width="3"><path d="M4 1.5a2.5 2.5 0 0 0 0 5h432a2.5 2.5 0 1 0 0-5H4zm0 28a2.5 2.5 0 1 0 0 5h432a2.5 2.5 0 1 0 0-5H4zm0 28a2.5 2.5 0 1 0 0 5h432a2.5 2.5 0 1 0 0-5H4zm0 28a2.5 2.5 0 1 0 0 5h432a2.5 2.5 0 1 0 0-5H4zm0 28a2.5 2.5 0 1 0 0 5h432a2.5 2.5 0 1 0 0-5H4z" style="mix-blend-mode:multiply" filter="url(#a)" transform="translate(30 40)"/><path d="M4 1.5a2.5 2.5 0 0 0 0 5h432a2.5 2.5 0 1 0 0-5H4zm0 28a2.5 2.5 0 1 0 0 5h432a2.5 2.5 0 1 0 0-5H4zm0 28a2.5 2.5 0 1 0 0 5h432a2.5 2.5 0 1 0 0-5H4zm0 28a2.5 2.5 0 1 0 0 5h432a2.5 2.5 0 1 0 0-5H4zm0 28a2.5 2.5 0 1 0 0 5h432a2.5 2.5 0 1 0 0-5H4z" style="mix-blend-mode:multiply" filter="url(#b)" transform="translate(30 40)"/></g><g transform="translate(43 58)"><text style="mix-blend-mode:multiply" filter="url(#c)" font-family="PingFangSC-Semibold, PingFang SC" font-size="48" font-weight="500" letter-spacing="2" fill="#E5786A"><tspan x="83" y="87">快来砍价</tspan> <tspan x="283" y="87">吧</tspan></text><g fill="#F77039"><use filter="url(#d)" xlink:href="#e"/><use xlink:href="#e"/></g><text style="mix-blend-mode:multiply" filter="url(#f)" font-family="PingFangSC-Medium, PingFang SC" font-size="30" font-weight="400" fill="#D25F51"><tspan x="0" y="32">我在“晓商+零售”发现一件好货</tspan></text><g fill="#FF814E"><use filter="url(#g)" xlink:href="#h"/><use xlink:href="#h"/></g><ellipse fill-opacity=".2" fill="#E08678" style="mix-blend-mode:multiply" filter="url(#i)" cx="205" cy="42" rx="144" ry="27"/></g><g stroke="#FFF" stroke-linejoin="round" stroke-width="3"><path d="M26 24h8L18 48V28h-8L26 4v20z" filter="url(#j)" transform="rotate(30 -131.87 183.23)"/><path d="M84.464 124.268l6.928 4-25.856 12.785 10-17.32-6.928-4 25.856-12.786-10 17.32z"/></g><g stroke="#FFF" stroke-linejoin="round" stroke-width="3"><path d="M25.392 23.053h8l-16 24v-20h-8l16-24v20z" filter="url(#k)" transform="rotate(30 39.888 818.097)"/><path d="M424.856 122.32l6.929 4-25.857 12.785 10-17.32-6.928-4L434.856 105l-10 17.32z"/></g></g></svg>